<svg width="12" height="12" viewBox="0 0 12 12" fill="none" xmlns="http://www.w3.org/2000/svg">
<path fill-rule="evenodd" clip-rule="evenodd" d="M9.71401 4.95242L10.6664 3.99999C11.4028 3.26361 11.4028 2.0697 10.6664 1.33332C9.93006 0.596943 8.73615 0.59694 7.99978 1.33332L7.03144 2.30165C7.66099 3.4118 8.58841 4.33195 9.71401 4.95242ZM5.57659 3.75651L1.52282 7.81028L1.52281 7.81029C1.09775 8.23534 0.885226 8.44787 0.745493 8.70896C0.605758 8.97006 0.546813 9.26479 0.428922 9.85424L0.14686 11.2646C0.0803375 11.5972 0.0470765 11.7635 0.141685 11.8581C0.236293 11.9527 0.402598 11.9194 0.735208 11.8529L2.14552 11.5708C2.73497 11.4529 3.0297 11.394 3.2908 11.2543C3.55189 11.1145 3.76442 10.902 4.18948 10.4769L8.25535 6.41108C7.18118 5.72543 6.26848 4.81881 5.57659 3.75651Z" fill="#646464"/>
</svg>
