<svg width="16" height="17" viewBox="0 0 16 17" fill="none" xmlns="http://www.w3.org/2000/svg">
<path d="M1.33337 12.5C1.33337 11.473 1.33337 10.9595 1.56453 10.5823C1.69387 10.3712 1.87133 10.1938 2.08239 10.0644C2.4596 9.83331 2.97308 9.83331 4.00004 9.83331C5.027 9.83331 5.54048 9.83331 5.91769 10.0644C6.12875 10.1938 6.30621 10.3712 6.43555 10.5823C6.66671 10.9595 6.66671 11.473 6.66671 12.5C6.66671 13.5269 6.66671 14.0404 6.43555 14.4176C6.30621 14.6287 6.12875 14.8062 5.91769 14.9355C5.54048 15.1666 5.027 15.1666 4.00004 15.1666C2.97308 15.1666 2.4596 15.1666 2.08239 14.9355C1.87133 14.8062 1.69387 14.6287 1.56453 14.4176C1.33337 14.0404 1.33337 13.5269 1.33337 12.5Z" stroke="#141B34" stroke-width="1.5"/>
<path d="M9.33337 12.5C9.33337 11.473 9.33337 10.9595 9.56451 10.5823C9.69384 10.3712 9.87131 10.1938 10.0824 10.0644C10.4596 9.83331 10.9731 9.83331 12 9.83331C13.027 9.83331 13.5405 9.83331 13.9177 10.0644C14.1288 10.1938 14.3062 10.3712 14.4356 10.5823C14.6667 10.9595 14.6667 11.473 14.6667 12.5C14.6667 13.5269 14.6667 14.0404 14.4356 14.4176C14.3062 14.6287 14.1288 14.8062 13.9177 14.9355C13.5405 15.1666 13.027 15.1666 12 15.1666C10.9731 15.1666 10.4596 15.1666 10.0824 14.9355C9.87131 14.8062 9.69384 14.6287 9.56451 14.4176C9.33337 14.0404 9.33337 13.5269 9.33337 12.5Z" stroke="#141B34" stroke-width="1.5"/>
<path d="M1.33337 4.49998C1.33337 3.47302 1.33337 2.95954 1.56453 2.58233C1.69387 2.37127 1.87133 2.19381 2.08239 2.06447C2.4596 1.83331 2.97308 1.83331 4.00004 1.83331C5.027 1.83331 5.54048 1.83331 5.91769 2.06447C6.12875 2.19381 6.30621 2.37127 6.43555 2.58233C6.66671 2.95954 6.66671 3.47302 6.66671 4.49998C6.66671 5.52694 6.66671 6.04042 6.43555 6.41763C6.30621 6.62869 6.12875 6.80615 5.91769 6.93549C5.54048 7.16665 5.027 7.16665 4.00004 7.16665C2.97308 7.16665 2.4596 7.16665 2.08239 6.93549C1.87133 6.80615 1.69387 6.62869 1.56453 6.41763C1.33337 6.04042 1.33337 5.52694 1.33337 4.49998Z" stroke="#141B34" stroke-width="1.5"/>
<path d="M9.33337 4.49998C9.33337 3.47302 9.33337 2.95954 9.56451 2.58233C9.69384 2.37127 9.87131 2.19381 10.0824 2.06447C10.4596 1.83331 10.9731 1.83331 12 1.83331C13.027 1.83331 13.5405 1.83331 13.9177 2.06447C14.1288 2.19381 14.3062 2.37127 14.4356 2.58233C14.6667 2.95954 14.6667 3.47302 14.6667 4.49998C14.6667 5.52694 14.6667 6.04042 14.4356 6.41763C14.3062 6.62869 14.1288 6.80615 13.9177 6.93549C13.5405 7.16665 13.027 7.16665 12 7.16665C10.9731 7.16665 10.4596 7.16665 10.0824 6.93549C9.87131 6.80615 9.69384 6.62869 9.56451 6.41763C9.33337 6.04042 9.33337 5.52694 9.33337 4.49998Z" stroke="#141B34" stroke-width="1.5"/>
</svg>
