<svg width="24" height="24" viewBox="0 0 24 24" fill="none" xmlns="http://www.w3.org/2000/svg">
<path fill-rule="evenodd" clip-rule="evenodd" d="M9.01005 12.0931C8.73671 11.8979 8.60004 11.8003 8.46438 11.7882C8.34541 11.7777 8.22659 11.8101 8.12942 11.8796C8.01864 11.9588 7.95043 12.1122 7.81401 12.4192L4.77545 19.2559L4.77545 19.256C4.5319 19.8039 4.41013 20.0779 4.46199 20.2542C4.50699 20.4072 4.62227 20.5295 4.7723 20.5835C4.94518 20.6458 5.22592 20.5405 5.7874 20.3299L11.7194 18.1054C11.8233 18.0665 11.8753 18.047 11.9288 18.0392C11.9762 18.0324 12.0244 18.0324 12.0718 18.0392C12.1253 18.047 12.1772 18.0665 12.2812 18.1054L18.2132 20.3299C18.7746 20.5405 19.0554 20.6458 19.2282 20.5835C19.3783 20.5295 19.4936 20.4072 19.5386 20.2542C19.5904 20.0779 19.4686 19.8039 19.2251 19.2559L16.1865 12.4192C16.0501 12.1122 15.9819 11.9588 15.8711 11.8796C15.774 11.8101 15.6551 11.7777 15.5362 11.7882C15.4005 11.8003 15.2638 11.8979 14.9905 12.0931L12.5815 13.8138C12.2338 14.0622 11.7667 14.0622 11.419 13.8138L9.01005 12.0931ZM9.06139 9.61257C9.04973 9.63882 9.05813 9.66966 9.08151 9.68636L11.5353 11.4391C11.7026 11.5586 11.7862 11.6183 11.8775 11.6414C11.9581 11.6618 12.0425 11.6618 12.1231 11.6414C12.2143 11.6183 12.298 11.5586 12.4653 11.4391L14.919 9.68636C14.9424 9.66966 14.9508 9.63882 14.9392 9.61257L12.7313 4.64496C12.4998 4.12401 12.384 3.86353 12.2227 3.7834C12.0826 3.7138 11.918 3.7138 11.7778 3.7834C11.6165 3.86353 11.5008 4.12401 11.2692 4.64495L9.06139 9.61257Z" fill="black"/>
</svg>
