<svg width="22" height="19" viewBox="0 0 22 19" fill="none" xmlns="http://www.w3.org/2000/svg">
<path d="M13.5455 0H5.75C3.51104 0 2.39156 0 1.62037 0.602327C1.42182 0.757395 1.24411 0.938284 1.09176 1.14037C0.5 1.92534 0.5 3.06481 0.5 5.34375V6.23438C0.5 6.72625 0.891751 7.125 1.375 7.125H1.66667C2.95533 7.125 4 8.18832 4 9.5C4 10.8117 2.95533 11.875 1.66667 11.875H1.375C0.891751 11.875 0.5 12.2737 0.5 12.7656V13.6563C0.5 15.9352 0.5 17.0747 1.09176 17.8596C1.24411 18.0617 1.42182 18.2426 1.62037 18.3977C2.39156 19 3.51104 19 5.75 19H13.5455V17.8125C13.5455 17.2759 13.9728 16.8409 14.5 16.8409V14.0341C13.9728 14.0341 13.5455 13.5991 13.5455 13.0625V11.875C13.5455 11.3384 13.9728 10.9034 14.5 10.9034V8.09659C13.9728 8.09659 13.5455 7.6616 13.5455 7.125V5.9375C13.5455 5.40091 13.9728 4.96591 14.5 4.96591V2.15909C13.9728 2.15909 13.5455 1.72409 13.5455 1.1875V0Z" fill="#222222"/>
<path d="M14.5 2.15909V4.96591C15.0272 4.96591 15.4545 5.40091 15.4545 5.9375V7.125C15.4545 7.6616 15.0272 8.09659 14.5 8.09659V10.9034C15.0272 10.9034 15.4545 11.3384 15.4545 11.875V13.0625C15.4545 13.5991 15.0272 14.0341 14.5 14.0341V16.8409C15.0272 16.8409 15.4545 17.2759 15.4545 17.8125V19H16.25C18.489 19 19.6084 19 20.3796 18.3977C20.5782 18.2426 20.7559 18.0617 20.9082 17.8596C21.5 17.0747 21.5 15.9352 21.5 13.6562V12.7656C21.5 12.2737 21.1082 11.875 20.625 11.875H20.3333C19.0447 11.875 18 10.8117 18 9.5C18 8.18832 19.0447 7.125 20.3333 7.125H20.625C21.1082 7.125 21.5 6.72625 21.5 6.23437V5.34375C21.5 3.06481 21.5 1.92534 20.9082 1.14037C20.7559 0.938284 20.5782 0.757395 20.3796 0.602327C19.6084 0 18.489 0 16.25 0H15.4545V1.1875C15.4545 1.72409 15.0272 2.15909 14.5 2.15909Z" fill="#222222"/>
</svg>
