<svg width="16" height="17" viewBox="0 0 16 17" fill="none" xmlns="http://www.w3.org/2000/svg">
<path d="M14 12.1666C14 13.4553 12.9554 14.5 11.6667 14.5C10.378 14.5 9.33337 13.4553 9.33337 12.1666C9.33337 10.878 10.378 9.83331 11.6667 9.83331C12.9554 9.83331 14 10.878 14 12.1666Z" stroke="#141B34" stroke-width="1.5"/>
<path d="M11.6667 9.83331H4.33333C3.04467 9.83331 2 10.878 2 12.1666C2 13.4553 3.04467 14.5 4.33333 14.5H11.6667C12.9553 14.5 14 13.4553 14 12.1666C14 10.878 12.9553 9.83331 11.6667 9.83331Z" stroke="#141B34" stroke-width="1.5"/>
<path d="M2 4.83333C2 6.122 3.04467 7.16667 4.33333 7.16667C5.622 7.16667 6.66667 6.122 6.66667 4.83333C6.66667 3.54467 5.622 2.5 4.33333 2.5C3.04467 2.5 2 3.54467 2 4.83333Z" stroke="#141B34" stroke-width="1.5"/>
<path d="M4.33333 2.5H11.6667C12.9553 2.5 14 3.54467 14 4.83333C14 6.122 12.9553 7.16667 11.6667 7.16667H4.33333C3.04467 7.16667 2 6.122 2 4.83333C2 3.54467 3.04467 2.5 4.33333 2.5Z" stroke="#141B34" stroke-width="1.5"/>
</svg>
